<?xml version="1.0" encoding="UTF-8"?>
<svg width="32px" height="32px" viewBox="0 0 32 32" version="1.1" xmlns="http://www.w3.org/2000/svg" xmlns:xlink="http://www.w3.org/1999/xlink">
    <!-- Generator: sketchtool 50.2 (55047) - http://www.bohemiancoding.com/sketch -->
    <title>5B7E9F8D-1147-499A-A7EA-8DAF993DA08A</title>
    <desc>Created with sketchtool.</desc>
    <defs>
        <circle id="path-1" cx="16" cy="16" r="16"></circle>
    </defs>
    <g id="Symbols" stroke="none" stroke-width="1" fill="none" fill-rule="evenodd" opacity="0.497622283">
        <g id="Footer_1440" transform="translate(-303.000000, -379.000000)">
            <g id="Footer" transform="translate(0.000000, 120.000000)">
                <g id="social" transform="translate(135.000000, 259.000000)">
                    <g id="instagram" transform="translate(168.000000, 0.000000)">
                        <polygon id="Shape" points="0 0 32 0 32 32 0 32"></polygon>
                        <g id="a-link">
                            <g id="a-Clipped">
                                <mask id="mask-2" fill="white">
                                    <use xlink:href="#path-1"></use>
                                </mask>
                                <g id="a"></g>
                                <circle id="a" stroke="#7F878D" stroke-width="4" mask="url(#mask-2)" cx="16" cy="16" r="16"></circle>
                            </g>
                        </g>
                        <path d="M20.4618182,8.72727273 L11.5381818,8.72727273 C9.98659017,8.72927608 8.72927608,9.98659017 8.72727273,11.5381818 L8.72727273,20.4618182 C8.72927608,22.0134098 9.98659017,23.2707239 11.5381818,23.2727273 L20.4618182,23.2727273 C22.0134098,23.2707239 23.2707239,22.0134098 23.2727273,20.4618182 L23.2727273,11.5381818 C23.2707239,9.98659017 22.0134098,8.72927608 20.4618182,8.72727273 Z M21.2683636,10.4043636 L21.5898182,10.4029091 L21.5898182,12.8683636 L19.1316364,12.8756364 L19.1229091,10.4101818 L21.2683636,10.4043636 Z M13.9243636,14.5061818 C14.4043045,13.8374181 15.1768428,13.4405922 16,13.44 C16.8545455,13.44 17.6101818,13.8625455 18.0756364,14.5076364 C18.3789091,14.928 18.5607273,15.4429091 18.5607273,16.0007273 C18.5607273,17.4116364 17.4116364,18.5607273 16,18.5607273 C14.5890909,18.5607273 13.44,17.4116364 13.44,16.0007273 C13.44,15.4429091 13.6218182,14.928 13.9243636,14.5076364 L13.9243636,14.5061818 Z M21.856,20.4618182 C21.8547986,21.2313054 21.2313054,21.8547986 20.4618182,21.856 L11.5381818,21.856 C10.7685288,21.8551983 10.1448017,21.2314712 10.144,20.4618182 L10.144,14.5069091 L12.3163636,14.5069091 C12.1227846,14.9808958 12.0232396,15.4880076 12.0232727,16 C12.0252761,18.195691 13.8043099,19.9753755 16,19.9781818 C18.1962582,19.976177 19.976177,18.1962582 19.9781818,16 C19.9770487,15.4880513 19.8772912,14.9811155 19.6843636,14.5069091 L21.856,14.5069091 L21.856,20.4618182 Z" id="Shape" fill="#7F878D" fill-rule="nonzero"></path>
                    </g>
                </g>
            </g>
        </g>
    </g>
</svg>