<?xml version="1.0" encoding="utf-8"?>
<!-- Generator: Adobe Illustrator 22.1.0, SVG Export Plug-In . SVG Version: 6.00 Build 0)  -->
<svg version="1.1" id="Layer_1" xmlns="http://www.w3.org/2000/svg" xmlns:xlink="http://www.w3.org/1999/xlink" x="0px" y="0px"
	 viewBox="0 0 290 50" style="enable-background:new 0 0 290 50;" xml:space="preserve">
<style type="text/css">
	.st0{fill:#1B2A4D;}
	.st1{fill:#D8D9D9;}
	.st2{fill:#BD1421;}
</style>
<g>
	<path class="st0" d="M67.2,39.6h5.3v-7.2h6.7v7.2h5.3V20.7h-5.3v7.1h-6.7v-7.1h-5.3V39.6z M91.3,39.6h15.4v-4.5H96.5v-3h9.1V28
		h-9.1v-2.9h10v-4.5H91.3V39.6z M112.9,39.6h5.2V29.2l8.1,10.4h4.6V20.7h-5.2v10l-7.8-10h-4.9V39.6z M137.6,39.6h7.2
		c6.8,0,10.8-4.1,10.8-9.5c0-5.5-3.9-9.4-10.7-9.4h-7.3V39.6z M142.9,34.9v-9.7h2.1c3.1,0,5.2,1.8,5.2,4.8c0,3.1-2.1,4.8-5.2,4.8
		H142.9z M161.9,39.6h15.4v-4.5h-10.2v-3h9.1V28h-9.1v-2.9h10v-4.5h-15.2V39.6z M183.4,39.6h5.3v-5.7h2.3l3.8,5.7h6.1l-4.5-6.6
		c2.4-1,3.9-2.9,3.9-5.8c0-1.9-0.6-3.4-1.7-4.5c-1.3-1.3-3.3-2-6.2-2h-9V39.6z M188.7,29.8v-4.5h3.4c1.8,0,2.8,0.8,2.8,2.2
		c0,1.4-1,2.3-2.8,2.3H188.7z M205,36.8c2.3,2.1,5.5,3.1,8.9,3.1c4.6,0,7.7-2.3,7.7-6.2c0-3.6-2.7-5-7.1-6c-2.6-0.6-3.3-1-3.3-1.8
		c0-0.7,0.6-1.3,1.9-1.3c1.7,0,3.6,0.6,5.3,1.9l2.6-3.7c-2.1-1.7-4.6-2.5-7.8-2.5c-4.5,0-7.3,2.5-7.3,6.1c0,4,3.1,5.1,7.1,6
		c2.6,0.6,3.2,1,3.2,1.8c0,0.9-0.8,1.4-2.2,1.4c-2.2,0-4.3-0.8-6.1-2.3L205,36.8 M226.9,30.1c0,5.5,4.3,9.9,10.2,9.9
		c5.8,0,10.2-4.4,10.2-9.9c0-5.5-4.3-9.9-10.2-9.9C231.3,20.3,226.9,24.7,226.9,30.1 M242,30.1c0,2.8-1.9,5.1-4.8,5.1
		c-2.9,0-4.8-2.4-4.8-5.1c0-2.8,1.9-5.1,4.8-5.1C240,25,242,27.4,242,30.1 M253.6,39.6h5.2V29.2l8.1,10.4h4.6V20.7h-5.2v10l-7.8-10
		h-4.9V39.6z"/>
	<g>
		<path class="st1" d="M15.7,27.7c-0.7-1.1-0.9-1.3-1.3-3.1c-0.4-1.8-0.4-2.2-0.4-2.2s3.4-4.1,6.4-6.8s8.9-6.3,9.2-6.6l10-5.5
			L40,3.5c0.2,0,3.7,0.4,6.3,2c2.7,1.6,2,4.3,2,4.3l0,0.1c0,0-5.4,2.5-13.9,8.1s-17,12.1-17,12.1S16.3,28.8,15.7,27.7z"/>
		<polygon class="st0" points="31.4,22.8 31.4,37.4 35.6,37.4 35.6,31.7 41.9,31.7 41.9,37.4 46,37.4 46,22.8 41.9,22.8 41.9,28 
			35.6,28 35.6,22.8 		"/>
		<path class="st0" d="M57.4,39.2c0-2.1-0.7-4.1-2-5.8l1.5-1.5l1.8-1.8L57,28.3l-1.5-1.5c1.3-1.6,2-3.7,2-5.8c0-5.3-4.3-9.6-9.6-9.6
			c-0.3,0-0.7,0-1,0.1l-6.6,3.7L42,17l0.8-0.8c1.3-1.3,3-2.1,5-2.1c3.9,0,7,3.1,7,7c0,2-0.8,3.8-2.2,5.1l-0.8,0.8l3.3,3.3l-3.3,3.3
			l0.8,0.8c1.3,1.3,2.1,3.1,2.1,5c0,3.9-3.1,7-7,7c-2,0-3.8-0.8-5-2.1L42,43.3l-3.3,3.3l-3.3-3.3l-0.8,0.8c-1.3,1.3-3.1,2.2-5.1,2.2
			c-3.9,0-7-3.1-7-7c0-2,0.8-3.7,2.1-5l0.8-0.8l-3.3-3.3l3.3-3.3L24.7,26c-0.1-0.1-0.2-0.2-0.3-0.3L18.8,30l-0.1,0.1l1.8,1.8
			l1.5,1.5c-1.3,1.6-2,3.7-2,5.8c0,5.3,4.3,9.6,9.6,9.6c2.1,0,4.1-0.7,5.8-2l1.5,1.5l1.8,1.8l1.8-1.8l1.5-1.5c1.6,1.2,3.7,2,5.8,2
			C53.1,48.8,57.4,44.5,57.4,39.2z"/>
		<path class="st2" d="M37.1,3.4c0,0-5.9-1.5-8.5-2.3s-6-2.2-9.3,0.5s-7,6-9.3,13.8s-3.8,13.8-4.2,18s-0.4,6.5-0.4,6.5l0.5-0.3
			l0.4,0.6L7,39.5c0,0,1.2-10.2,3.1-13.7S15.9,13.6,20,9.4c-4.3,5.8-6.8,12.4-6.8,12.4l4.7-5c0,0,5.2-4.8,9.1-7.1
			c6.6-4,10.8-6,10.8-6L37.1,3.4z"/>
		<polygon class="st1" points="8,40.6 7.7,41.6 8.8,41.5 8.4,42.4 9.5,42.7 8.7,43.5 9.7,43.8 8.9,44.4 9.6,45 8.7,45.2 9.3,46.1 
			8.3,46 8.7,46.9 7.7,46.9 7.9,47.9 6.8,47.8 7,48.5 5.9,48.2 5.5,49.2 4.9,48.5 3.9,49.2 3.9,48.3 3.2,48.8 3.2,47.9 2.1,48.3 
			2.4,47.1 1.2,47.2 1.8,46.3 0.8,46.2 1.3,45.2 0.5,44.7 1.5,44.1 0.7,43.2 1.8,42.7 1.4,41.7 2.5,41.9 2.2,40.6 3.3,41.3 
			3.5,40.2 4.3,41 4.9,40 5.1,40.7 5.7,40.1 6,40.8 6.9,40.1 7,41 		"/>
	</g>
</g>
</svg>
