<?xml version="1.0" encoding="UTF-8"?>
<svg width="36px" height="22px" viewBox="0 0 36 22" version="1.1" xmlns="http://www.w3.org/2000/svg" xmlns:xlink="http://www.w3.org/1999/xlink">
    <!-- Generator: Sketch 52 (66869) - http://www.bohemiancoding.com/sketch -->
    <title>mastercard</title>
    <desc>Created with Sketch.</desc>
    <g id="Cart" stroke="none" stroke-width="1" fill="none" fill-rule="evenodd">
        <g id="Bork-Checkout-Payment-Desktop" transform="translate(-569.000000, -485.000000)">
            <g id="Payment" transform="translate(155.000000, 368.000000)">
                <g id="Group-3" transform="translate(340.000000, 81.000000)">
                    <g id="mastercard" transform="translate(57.000000, 25.000000)">
                        <path d="M0.0273567468,5.2041499 C0.0273567468,2.44394586 2.26424486,0.206358382 5.0328171,0.206358382 L64.6218964,0.206358382 C67.3863358,0.206358382 69.6273567,2.43800952 69.6273567,5.2041499 L69.6273567,38.4085669 C69.6273567,41.1687709 67.3904686,43.4063584 64.6218964,43.4063584 L5.0328171,43.4063584 C2.26837768,43.4063584 0.0273567468,41.1747072 0.0273567468,38.4085669 L0.0273567468,5.2041499 Z" id="card" fill-opacity="0" fill="#14457C"></path>
                        <g id="logo" transform="translate(17.016636, 11.014451)">
                            <path d="M10.732378,21.524485 C4.82533577,21.524485 0.0369977442,16.7064945 0.0369977442,10.7624126 C0.0369977442,4.81850079 4.82533577,0 10.732378,0 C16.6389132,0 21.4269132,4.81850079 21.4269132,10.7624126 C21.4269132,16.7064945 16.6389132,21.524485 10.732378,21.524485 Z" id="Fill-2" fill="#D82332"></path>
                            <path d="M25.1960963,0 C22.432209,0 19.9144062,1.05499843 18.01604,2.78571969 C17.6300118,3.13846299 17.2693358,3.51943937 16.9368851,3.92507717 L19.0973921,3.92507717 C19.3924907,4.28666457 19.6646034,4.66679055 19.9127161,5.06494488 L16.1210541,5.06494488 C15.8944062,5.43078425 15.68804,5.81091024 15.5049977,6.2048126 L20.5287724,6.2048126 C20.7004907,6.57371339 20.8515893,6.95366929 20.9817301,7.34417008 L15.05204,7.34417008 C14.9284907,7.71545197 14.824547,8.09557795 14.7412231,8.48335748 L21.29204,8.48335748 C21.4487161,9.21809764 21.532209,9.98039055 21.532209,10.7624126 C21.532209,11.9572157 21.3388569,13.1072882 20.9817301,14.1813354 L15.05204,14.1813354 C15.1820118,14.5716661 15.3332794,14.9519622 15.5046597,15.3213732 L20.5287724,15.3213732 C20.3452231,15.7142551 20.139871,16.0947213 19.911871,16.4610709 L16.1210541,16.4610709 C16.3684907,16.8580346 16.6411104,17.2386709 16.9368851,17.599748 L19.0967161,17.599748 C18.7647724,18.005726 18.4039273,18.3867024 18.016547,18.7394457 C19.9147442,20.4701669 22.432209,21.524485 25.1960963,21.524485 C31.1026315,21.524485 35.8909696,16.7064945 35.8909696,10.7624126 C35.8909696,4.81901102 31.1026315,0 25.1960963,0" id="Fill-3" fill="#F1AB3E"></path>
                            <path d="M34.3468569,16.6750299 C34.3468569,16.4831811 34.5016738,16.3275591 34.6924907,16.3275591 C34.8836456,16.3275591 35.0377865,16.4831811 35.0377865,16.6750299 C35.0377865,16.8670488 34.8836456,17.0228409 34.6924907,17.0228409 C34.5016738,17.0228409 34.3468569,16.8670488 34.3468569,16.6750299 L34.3468569,16.6750299 Z M34.6924907,16.9395024 C34.8369977,16.9395024 34.9549696,16.8209575 34.9549696,16.6750299 C34.9549696,16.5285921 34.8369977,16.4110677 34.6924907,16.4110677 C34.5473076,16.4110677 34.4296738,16.5285921 34.4296738,16.6750299 C34.4296738,16.8209575 34.5473076,16.9395024 34.6924907,16.9395024 L34.6924907,16.9395024 Z M34.6456738,16.8275906 L34.5746879,16.8275906 L34.5746879,16.5226394 L34.7033076,16.5226394 C34.7298428,16.5226394 34.7572231,16.5226394 34.7808851,16.5372661 C34.8050541,16.5546142 34.8192513,16.5836976 34.8192513,16.6139717 C34.8192513,16.6484976 34.7994766,16.6808126 34.7665189,16.6930583 L34.8226315,16.8275906 L34.74404,16.8275906 L34.6973921,16.7070047 L34.6456738,16.7070047 L34.6456738,16.8275906 L34.6456738,16.8275906 Z M34.6456738,16.6544504 L34.6848851,16.6544504 C34.6994203,16.6544504 34.7149696,16.6554709 34.7281527,16.6484976 C34.7396456,16.6408441 34.7458992,16.6272378 34.7458992,16.6132913 C34.7458992,16.601726 34.7381245,16.5881197 34.7284907,16.5821669 C34.7159837,16.5748535 34.696378,16.5763843 34.6831949,16.5763843 L34.6456738,16.5763843 L34.6456738,16.6544504 L34.6456738,16.6544504 Z" id="registered" fill="#F1AB3E"></path>
                            <path d="M34.3468569,13.2737953 C34.3468569,13.0810961 34.5020118,12.9259843 34.6918146,12.9259843 C34.8829696,12.9259843 35.0371104,13.0810961 35.0371104,13.2737953 C35.0371104,13.4651339 34.8829696,13.6212661 34.6918146,13.6212661 C34.5020118,13.6212661 34.3468569,13.4651339 34.3468569,13.2737953 L34.3468569,13.2737953 Z M34.6918146,13.5379276 C34.8373358,13.5379276 34.9549696,13.4193827 34.9549696,13.2737953 C34.9549696,13.1280378 34.8373358,13.0094929 34.6918146,13.0094929 C34.5469696,13.0094929 34.4296738,13.1280378 34.4296738,13.2737953 C34.4296738,13.4193827 34.5469696,13.5379276 34.6918146,13.5379276 L34.6918146,13.5379276 Z M34.6453358,13.4256756 L34.5746879,13.4256756 L34.5746879,13.1207244 L34.7029696,13.1207244 C34.7298428,13.1207244 34.7568851,13.1217449 34.780378,13.1363717 C34.8053921,13.1528693 34.8189132,13.1821228 34.8189132,13.2123969 C34.8189132,13.2469228 34.7991386,13.2792378 34.7668569,13.2914835 L34.8226315,13.4256756 L34.74404,13.4256756 L34.6973921,13.3050898 L34.6453358,13.3050898 L34.6453358,13.4256756 L34.6453358,13.4256756 Z M34.6453358,13.2528756 L34.684547,13.2528756 C34.6987442,13.2528756 34.7153076,13.2542362 34.7278146,13.2469228 C34.7393076,13.2396094 34.7452231,13.2249827 34.7452231,13.2117165 C34.7452231,13.2001512 34.7384625,13.1872252 34.7284907,13.1800819 C34.7163217,13.1732787 34.696378,13.1751496 34.6831949,13.1751496 L34.6453358,13.1751496 L34.6453358,13.2528756 L34.6453358,13.2528756 Z" id="registered" fill="#FFFFFE"></path>
                            <path d="M33.2528287,8.33385827 L32.9947442,9.91099843 C32.6778428,9.49073386 32.3367724,9.18629291 31.8865189,9.18629291 C31.300547,9.18629291 30.7674766,9.63325984 30.4182935,10.2914646 C29.931871,10.1899276 29.4295611,10.0172976 29.4295611,10.0172976 L29.4292231,10.0215496 C29.4677583,9.65366929 29.4843217,9.42984567 29.4804344,9.35331024 L28.4137865,9.35331024 C28.2689414,10.7277165 28.0103499,12.1193008 27.8087161,13.4942173 L27.7553076,13.7928756 L28.9172794,13.7928756 C29.0739555,12.7683213 29.1937865,11.9165669 29.2823499,11.2420346 C29.6793639,10.8809575 29.8781245,10.566652 30.2785189,10.5870614 C30.1010541,11.0194016 29.9972794,11.517052 29.9972794,12.0276283 C29.9972794,13.137052 30.5548569,13.8695811 31.3992513,13.8695811 C31.8248287,13.8695811 32.1511949,13.7217827 32.4697865,13.3795843 L32.4150259,13.7925354 L33.5136175,13.7925354 L34.3978992,8.33385827 L33.2528287,8.33385827 L33.2528287,8.33385827 Z M31.8006597,12.7673008 C31.4055048,12.7673008 31.2055611,12.4723843 31.2055611,11.8920756 C31.2055611,11.0194016 31.5795893,10.4008252 32.1060682,10.4008252 C32.5051104,10.4008252 32.7212794,10.7062866 32.7212794,11.2702677 C32.7212794,12.1504252 32.3409977,12.7673008 31.8006597,12.7673008 L31.8006597,12.7673008 Z" id="Fill-12" fill="#0C2D5A"></path>
                            <path d="M26.5781245,11.9155465 C26.4569414,11.9012598 26.4031949,11.897348 26.319702,11.897348 C25.6617301,11.897348 25.3286034,12.1242331 25.3286034,12.5727307 C25.3286034,12.8487685 25.4911949,13.0254803 25.7447161,13.0254803 C26.2172794,13.0254803 26.5586879,12.5723906 26.5781245,11.9155465 L26.5781245,11.9155465 Z M27.4231949,13.893052 L26.4613358,13.893052 L26.4831386,13.4333291 C26.1895611,13.7964472 25.7981245,13.9700976 25.2665752,13.9700976 C24.6368287,13.9700976 24.2060118,13.4751685 24.2060118,12.7570961 C24.2060118,11.6757354 24.9557583,11.0461039 26.2441527,11.0461039 C26.3758146,11.0461039 26.5441527,11.0581795 26.7167161,11.0806299 C26.7527161,10.9336819 26.7623499,10.871263 26.7623499,10.7916661 C26.7623499,10.4981102 26.5607161,10.3887496 26.0180118,10.3887496 C25.4501245,10.3819465 24.9821245,10.5243024 24.7889414,10.5877417 C24.8012794,10.5142677 24.9500118,9.58954961 24.9500118,9.58954961 C25.5287161,9.41879055 25.9100118,9.35433071 26.3394766,9.35433071 C27.3364907,9.35433071 27.8648287,9.80520945 27.8636456,10.6562835 C27.8658428,10.8843591 27.8283217,11.1665197 27.7698428,11.5359307 C27.6691104,12.1783181 27.4529414,13.5579969 27.4231949,13.893052 L27.4231949,13.893052 Z" id="a" fill="#0C2D5A"></path>
                            <path d="M23.5154203,9.51590551 C23.8378992,9.51590551 24.1389132,9.60026457 24.5529977,9.81048189 L24.7431386,8.62588346 C24.5724344,8.55853228 23.9739555,8.16377953 23.4669132,8.16377953 C22.6901245,8.16377953 22.0324907,8.55223937 21.5710823,9.19190551 C20.8970541,8.96740157 20.619702,9.42117165 20.2803217,9.8735811 L19.9786315,9.94433386 C20.0014484,9.79551496 20.0222372,9.64754646 20.0156456,9.49787717 L18.9486597,9.49787717 C18.8034766,10.8722835 18.5453921,12.2638677 18.3432513,13.6387843 L18.2905189,13.9374425 L19.4521527,13.9374425 C19.6458428,12.6696756 19.7518146,11.8582299 19.816547,11.3085354 L20.2539555,11.0646425 C20.319702,10.8195591 20.523702,10.7372409 20.9338992,10.7472756 C20.8804907,11.0367496 20.8514203,11.3417008 20.8514203,11.6571969 C20.8514203,13.1098394 21.6310823,14.014148 22.8806034,14.014148 C23.2024062,14.014148 23.4790823,13.9716283 23.9071949,13.854274 L24.1105189,12.6103181 C23.7256738,12.8006362 23.4104625,12.8902677 23.1244907,12.8902677 C22.4494484,12.8902677 22.0411104,12.3887055 22.0411104,11.560252 C22.0411104,10.3579654 22.648209,9.51590551 23.5154203,9.51590551" id="Fill-11" fill="#0C2D5A"></path>
                            <path d="M17.8911386,13.7904945 C17.4946315,13.912611 17.1114766,13.9704378 16.7066879,13.9700976 C15.4144062,13.9692472 14.7412231,13.2897827 14.7412231,11.9897008 C14.7412231,10.471748 15.5977865,9.35433071 16.7604344,9.35433071 C17.7128287,9.35433071 18.3202653,9.97988031 18.3202653,10.9617449 C18.3202653,11.2871055 18.2780118,11.6046425 18.1782935,12.0531402 L15.879871,12.0531402 C15.8017865,12.6972283 16.2116456,12.9659528 16.8828006,12.9659528 C17.295702,12.9659528 17.668547,12.8798929 18.0833076,12.6860031 L17.8911386,13.7904945 L17.8911386,13.7904945 Z M17.2424625,11.1578457 C17.2487161,11.0649827 17.3646597,10.3654488 16.7051668,10.3654488 C16.3377301,10.3654488 16.0749132,10.6479496 15.9677583,11.1578457 L17.2424625,11.1578457 L17.2424625,11.1578457 Z" id="e" fill="#0C2D5A"></path>
                            <path d="M14.2961943,13.8877795 C13.9786168,13.9884661 13.7308422,14.0321764 13.4622788,14.0321764 C12.8687013,14.0321764 12.5445323,13.6887874 12.5445323,13.057285 C12.5364196,12.8603339 12.6302225,12.3451654 12.7039126,11.8737071 C12.7708422,11.4585449 13.2074056,8.84409449 13.2074056,8.84409449 L14.3614337,8.84409449 L14.2265605,9.51590551 L14.8189549,9.51590551 L14.6612647,10.5826394 L14.0668422,10.5826394 C13.932814,11.4275906 13.7414901,12.4786772 13.7392929,12.6181417 C13.7392929,12.847748 13.860983,12.947074 14.137152,12.947074 C14.2693211,12.947074 14.3717436,12.933978 14.4501661,12.9052346 L14.2961943,13.8877795" id="t" fill="#0C2D5A"></path>
                            <path d="M9.77220901,10.8571465 C9.77220901,11.4192567 10.0429696,11.8056756 10.6566597,12.0970205 C11.1266879,12.3194835 11.1993639,12.3853039 11.1993639,12.5870173 C11.1993639,12.8637354 10.9921527,12.9885732 10.5326034,12.9885732 C10.1861245,12.9885732 9.86398366,12.9344882 9.49215267,12.8139024 C9.49215267,12.8139024 9.34004,13.7920252 9.33277239,13.8382866 C9.59660338,13.8964535 9.83204,13.9495181 10.5408851,13.9700976 C11.7662372,13.9700976 12.3320963,13.5008504 12.3320963,12.4863307 C12.3320963,11.8760882 12.0951386,11.5182425 11.5135611,11.2495181 C11.0268006,11.0241638 10.9708569,10.9743307 10.9708569,10.7668346 C10.9708569,10.5268535 11.163702,10.4033764 11.5390823,10.4033764 C11.7667442,10.4033764 12.0782372,10.4288882 12.3733358,10.4707276 L12.5386315,9.44124094 C12.2379555,9.39344882 11.7822935,9.35433071 11.5166034,9.35433071 C10.2177301,9.35433071 9.76832169,10.0370268 9.77220901,10.8571465" id="s" fill="#0C2D5A"></path>
                            <path d="M8.32544845,11.9155465 C8.20375831,11.9012598 8.15001183,11.897348 8.06634986,11.897348 C7.40820901,11.897348 7.07508225,12.1242331 7.07508225,12.5727307 C7.07508225,12.8487685 7.2376738,13.0254803 7.49136394,13.0254803 C7.96443436,13.0254803 8.30533577,12.5723906 8.32544845,11.9155465 L8.32544845,11.9155465 Z M9.16984281,13.893052 L8.20798366,13.893052 L8.22995549,13.4333291 C7.93654704,13.7964472 7.54494141,13.9700976 7.01305408,13.9700976 C6.38381465,13.9700976 5.9524907,13.4751685 5.9524907,12.7570961 C5.9524907,11.6757354 6.70274422,11.0461039 7.99080056,11.0461039 C8.12263155,11.0461039 8.2913076,11.0581795 8.46404,11.0806299 C8.50004,10.9336819 8.50950479,10.871263 8.50950479,10.7916661 C8.50950479,10.4981102 8.30719493,10.3887496 7.76499774,10.3887496 C7.19660338,10.3819465 6.72843436,10.5243024 6.53575831,10.5877417 C6.54792732,10.5142677 6.69682873,9.58954961 6.69682873,9.58954961 C7.27536394,9.41879055 7.65699774,9.35433071 8.08646253,9.35433071 C9.08347662,9.35433071 9.61147662,9.80520945 9.61046253,10.6562835 C9.6124907,10.8843591 9.57496958,11.1665197 9.51665972,11.5359307 C9.41575831,12.1783181 9.19942028,13.5579969 9.16984281,13.893052 L9.16984281,13.893052 Z" id="a" fill="#0C2D5A"></path>
                            <polyline id="m" fill="#0C2D5A" points="5.36888507 13.9624441 4.20792732 13.9624441 4.87316676 9.76626142 3.38804 13.9624441 2.59671605 13.9624441 2.4988569 9.79058268 1.79981465 13.9624441 0.713054082 13.9624441 1.62082873 8.50393701 3.29051887 8.50393701 3.33699774 11.8830614 4.46364563 8.50393701 6.2668569 8.50393701 5.36888507 13.9624441"></polyline>
                            <path d="M33.975702,13.6222866 L32.8776175,13.6222866 L32.93204,13.2091654 C32.6134484,13.5515339 32.2869132,13.6993323 31.8615048,13.6993323 C31.0176175,13.6993323 30.459533,12.9676535 30.459533,11.8570394 C30.459533,10.3804157 31.3250541,9.13577953 32.3486034,9.13577953 C32.7990259,9.13577953 33.1399273,9.3208252 33.4575048,9.74125984 L33.7150823,8.16377953 L34.8601527,8.16377953 L33.975702,13.6222866 L33.975702,13.6222866 Z M32.2629132,12.5965417 C32.8039273,12.5965417 33.183533,11.9800063 33.183533,11.1006992 C33.183533,10.536548 32.9673639,10.2302362 32.5681527,10.2302362 C32.0416738,10.2302362 31.6676456,10.8488126 31.6676456,11.7218268 C31.6676456,12.3029858 31.8680963,12.5965417 32.2629132,12.5965417 L32.2629132,12.5965417 Z" id="d-2" fill="#FFFFFE"></path>
                            <path d="M28.7516456,9.06183384 C28.6062935,10.4359 28.348209,11.8276543 28.1462372,13.2024008 L28.0933358,13.501059 L29.2546315,13.501059 C29.6698992,10.7862622 29.7699555,10.2564669 30.4216738,10.3226275 C30.5252794,9.7669803 30.7182935,9.28038502 30.8622935,9.03513148 C30.37604,8.93308424 30.1044344,9.20963227 29.7484907,9.73517558 C29.7768851,9.5077803 29.8280963,9.28718817 29.8184625,9.06183384 L28.7516456,9.06183384" id="r-2" fill="#FFFFFE"></path>
                            <path d="M26.9161527,11.575389 C26.7949696,11.5611024 26.7412231,11.5571906 26.6577301,11.5571906 C25.9997583,11.5571906 25.6666315,11.7840756 25.6666315,12.2325732 C25.6666315,12.508611 25.8292231,12.6853228 26.0827442,12.6853228 C26.5553076,12.6853228 26.8967161,12.2322331 26.9161527,11.575389 L26.9161527,11.575389 Z M27.7612231,13.5528945 L26.7993639,13.5528945 L26.8211668,13.0931717 C26.5275893,13.4562898 26.1361527,13.6299402 25.6046034,13.6299402 C24.9748569,13.6299402 24.54404,13.135011 24.54404,12.4169386 C24.54404,11.335578 25.2937865,10.7059465 26.5821808,10.7059465 C26.7138428,10.7059465 26.8821808,10.718022 27.0547442,10.7404724 C27.0907442,10.5935244 27.100378,10.5311055 27.100378,10.4515087 C27.100378,10.1579528 26.8987442,10.0485921 26.35604,10.0485921 C25.7881527,10.041789 25.3201527,10.1841449 25.1269696,10.2475843 C25.1393076,10.1741102 25.28804,9.24939213 25.28804,9.24939213 C25.8667442,9.07863307 26.24804,9.01417323 26.6775048,9.01417323 C27.6745189,9.01417323 28.2028569,9.46505197 28.2016738,10.316126 C28.203871,10.5442016 28.1663499,10.8263622 28.107871,11.1957732 C28.0071386,11.8381606 27.7909696,13.2178394 27.7612231,13.5528945 L27.7612231,13.5528945 Z" id="a-2" fill="#FFFFFE"></path>
                            <path d="M25.0549696,8.27722205 L24.8648287,9.46182047 C24.4502372,9.25211339 24.1498992,9.16724409 23.8275893,9.16724409 C22.9607161,9.16724409 22.3527724,10.0103244 22.3527724,11.2127811 C22.3527724,12.0412346 22.7614484,12.5417764 23.4364907,12.5417764 C23.7222935,12.5417764 24.0381808,12.4528252 24.4225189,12.2618268 L24.2185189,13.5057827 C23.7910823,13.623137 23.5144062,13.6658268 23.1926034,13.6658268 C21.9424062,13.6658268 21.1637583,12.761348 21.1637583,11.3090457 C21.1637583,9.3575622 22.240209,7.99370079 23.7787442,7.99370079 C24.2857865,7.99370079 24.8846034,8.20987087 25.0549696,8.27722205" id="c-2" fill="#FFFFFE"></path>
                            <path d="M19.287533,9.06183384 C19.1415048,10.4359 18.8830823,11.8276543 18.6814484,13.2024008 L18.628547,13.501059 L19.7901808,13.501059 C20.2057865,10.7862622 20.3055048,10.2564669 20.956209,10.3226275 C21.0604907,9.7669803 21.2540118,9.28038502 21.3975048,9.03513148 C20.9115893,8.93308424 20.6396456,9.20963227 20.284378,9.73517558 C20.3124344,9.5077803 20.3639837,9.28718817 20.3536738,9.06183384 L19.287533,9.06183384" id="r-3" fill="#FFFFFE"></path>
                            <path d="M18.2291668,13.450337 C17.8326597,13.5724535 17.4495048,13.6302803 17.0447161,13.6299402 C15.7524344,13.6290898 15.0792513,12.9496252 15.0792513,11.6495433 C15.0792513,10.1315906 15.9358146,9.01417323 17.0984625,9.01417323 C18.0508569,9.01417323 18.6582935,9.63972283 18.6582935,10.6215874 C18.6582935,10.946948 18.61604,11.264485 18.5163217,11.7129827 L16.2178992,11.7129827 C16.1398146,12.3570709 16.5496738,12.6257953 17.2208287,12.6257953 C17.6337301,12.6257953 18.0065752,12.5397354 18.4213358,12.3458457 L18.2291668,13.450337 L18.2291668,13.450337 Z M17.5804907,10.8176882 C17.5867442,10.7248252 17.7026879,10.0252913 17.0431949,10.0252913 C16.6757583,10.0252913 16.4129414,10.3077921 16.3057865,10.8176882 L17.5804907,10.8176882 L17.5804907,10.8176882 Z" id="e-2" fill="#FFFFFE"></path>
                            <path d="M14.6342225,13.547622 C14.316645,13.6483087 14.0688703,13.6920189 13.800307,13.6920189 C13.2067295,13.6920189 12.8825605,13.3486299 12.8825605,12.7171276 C12.8744478,12.5201764 12.9682506,12.0050079 13.0419408,11.5335496 C13.1088703,11.1183874 13.5454337,8.50393701 13.5454337,8.50393701 L14.6994619,8.50393701 L14.5645887,9.17574803 L15.156983,9.17574803 L14.9992929,10.2424819 L14.4048703,10.2424819 C14.2708422,11.0874331 14.0795182,12.1385197 14.0773211,12.2779843 C14.0773211,12.5075906 14.1990112,12.6069165 14.4751802,12.6069165 C14.6073492,12.6069165 14.7097718,12.5938205 14.7881943,12.5650772 L14.6342225,13.547622" id="t-2" fill="#FFFFFE"></path>
                            <path d="M10.1102372,10.516989 C10.1102372,11.0790992 10.3809977,11.4655181 10.9946879,11.756863 C11.4647161,11.979326 11.5373921,12.0451465 11.5373921,12.2468598 C11.5373921,12.523578 11.3301808,12.6484157 10.8706315,12.6484157 C10.5241527,12.6484157 10.2020118,12.5943307 9.83018084,12.4737449 C9.83018084,12.4737449 9.67806817,13.4518677 9.67080056,13.4981291 C9.93463155,13.5562961 10.1700682,13.6093606 10.8789132,13.6299402 C12.1042653,13.6299402 12.6701245,13.1606929 12.6701245,12.1461732 C12.6701245,11.5359307 12.4331668,11.178085 11.8515893,10.9093606 C11.3648287,10.6840063 11.3088851,10.6341732 11.3088851,10.4266772 C11.3088851,10.1866961 11.5017301,10.0632189 11.8771104,10.0632189 C12.1047724,10.0632189 12.4162653,10.0887307 12.7113639,10.1305701 L12.8766597,9.10108346 C12.5759837,9.05329134 12.1203217,9.01417323 11.8546315,9.01417323 C10.5557583,9.01417323 10.1063499,9.69686929 10.1102372,10.516989" id="s-2" fill="#FFFFFE"></path>
                            <path d="M8.66347662,11.575389 C8.54178648,11.5611024 8.48804,11.5571906 8.40437803,11.5571906 C7.74623718,11.5571906 7.41311042,11.7840756 7.41311042,12.2325732 C7.41311042,12.508611 7.57570197,12.6853228 7.82939211,12.6853228 C8.30246253,12.6853228 8.64336394,12.2322331 8.66347662,11.575389 L8.66347662,11.575389 Z M9.50787098,13.5528945 L8.54601183,13.5528945 L8.56798366,13.0931717 C8.27457521,13.4562898 7.88296958,13.6299402 7.35108225,13.6299402 C6.72184281,13.6299402 6.29051887,13.135011 6.29051887,12.4169386 C6.29051887,11.335578 7.04077239,10.7059465 8.32882873,10.7059465 C8.46065972,10.7059465 8.62933577,10.718022 8.80206817,10.7404724 C8.83806817,10.5935244 8.84753296,10.5311055 8.84753296,10.4515087 C8.84753296,10.1579528 8.6452231,10.0485921 8.10302591,10.0485921 C7.53463155,10.041789 7.06646253,10.1841449 6.87378648,10.2475843 C6.88595549,10.1741102 7.0348569,9.24939213 7.0348569,9.24939213 C7.61339211,9.07863307 7.99502591,9.01417323 8.4244907,9.01417323 C9.42150479,9.01417323 9.94950479,9.46505197 9.9484907,10.316126 C9.95051887,10.5442016 9.91299774,10.8263622 9.85468789,11.1957732 C9.75378648,11.8381606 9.53744845,13.2178394 9.50787098,13.5528945 L9.50787098,13.5528945 Z" id="a-3" fill="#FFFFFE"></path>
                            <polyline id="m-2" fill="#FFFFFE" points="5.70691324 13.6222866 4.54595549 13.6222866 5.21119493 9.42610394 3.72606817 13.6222866 2.93474422 13.6222866 2.83688507 9.4504252 2.13784281 13.6222866 1.05108225 13.6222866 1.9588569 8.16377953 3.62854704 8.16377953 3.67502591 11.5429039 4.8016738 8.16377953 6.60488507 8.16377953 5.70691324 13.6222866"></polyline>
                        </g>
                    </g>
                </g>
            </g>
        </g>
    </g>
</svg>