<?xml version="1.0" encoding="UTF-8"?>
<svg width="35px" height="10px" viewBox="0 0 35 10" version="1.1" xmlns="http://www.w3.org/2000/svg" xmlns:xlink="http://www.w3.org/1999/xlink">
    <!-- Generator: Sketch 52 (66869) - http://www.bohemiancoding.com/sketch -->
    <title>mir</title>
    <desc>Created with Sketch.</desc>
    <defs>
        <linearGradient x1="-0.18041958%" y1="50%" x2="100%" y2="50%" id="linearGradient-1">
            <stop stop-color="#00B4E6" offset="0%"></stop>
            <stop stop-color="#088CCB" offset="100%"></stop>
        </linearGradient>
    </defs>
    <g id="Cart" stroke="none" stroke-width="1" fill="none" fill-rule="evenodd">
        <g id="Bork-Checkout-Payment-Desktop" transform="translate(-478.000000, -490.000000)">
            <g id="Payment" transform="translate(155.000000, 368.000000)">
                <g id="Group-3" transform="translate(323.000000, 81.000000)">
                    <g id="mir" transform="translate(0.000000, 41.000000)">
                        <path d="M31.0714286,0 L24.4285714,0 C24.7857143,2.21428571 26.9285714,4.28571429 29.2857143,4.28571429 L34.5714286,4.28571429 C34.6428571,4.07142857 34.6428571,3.78571429 34.6428571,3.57142857 C34.6428571,1.57142857 33.0714286,0 31.0714286,0 Z" id="path10" fill="url(#linearGradient-1)"></path>
                        <path d="M25,4.64285714 L25,10 L28.2142857,10 L28.2142857,7.14285714 L31.0714286,7.14285714 C32.6428571,7.14285714 34,6.07142857 34.4285714,4.64285714 L25,4.64285714 Z" id="path12" fill="#4DB45F"></path>
                        <path d="M13.5714286,0 L13.5714286,10 L16.4285714,10 C16.4285714,10 17.1428571,10 17.5,9.28571429 C19.4285714,5.42857143 20,4.28571429 20,4.28571429 L20.3571429,4.28571429 L20.3571429,10 L23.5714286,10 L23.5714286,0 L20.7142857,0 C20.7142857,0 20,0.0714285714 19.6428571,0.714285714 C18,4 17.1428571,5.71428571 17.1428571,5.71428571 L16.7857143,5.71428571 L16.7857143,0 L13.5714286,0 Z" id="path14" fill="#4DB45F"></path>
                        <path d="M0,10 L0,0 L3.21428571,0 C3.21428571,0 4.14285714,0 4.64285714,1.42857143 C5.92857143,5.21428571 6.07142857,5.71428571 6.07142857,5.71428571 C6.07142857,5.71428571 6.35714286,4.78571429 7.5,1.42857143 C8,0 8.92857143,0 8.92857143,0 L12.1428571,0 L12.1428571,10 L8.92857143,10 L8.92857143,4.64285714 L8.57142857,4.64285714 L6.78571429,10 L5.35714286,10 L3.57142857,4.64285714 L3.21428571,4.64285714 L3.21428571,10 L0,10 Z" id="path16" fill="#4DB45F"></path>
                    </g>
                </g>
            </g>
        </g>
    </g>
</svg>