<?xml version="1.0" encoding="UTF-8"?>
<svg width="32px" height="32px" viewBox="0 0 32 32" version="1.1" xmlns="http://www.w3.org/2000/svg" xmlns:xlink="http://www.w3.org/1999/xlink">
    <!-- Generator: sketchtool 50.2 (55047) - http://www.bohemiancoding.com/sketch -->
    <title>9174966E-CF7E-45E0-B9D4-FA158CDAD01C</title>
    <desc>Created with sketchtool.</desc>
    <defs>
        <circle id="path-1" cx="16" cy="16" r="16"></circle>
    </defs>
    <g id="Symbols" stroke="none" stroke-width="1" fill="none" fill-rule="evenodd" opacity="0.497622283">
        <g id="Footer_1440" transform="translate(-261.000000, -379.000000)">
            <g id="Footer" transform="translate(0.000000, 120.000000)">
                <g id="social" transform="translate(135.000000, 259.000000)">
                    <g id="ok" transform="translate(126.000000, 0.000000)">
                        <polygon id="Shape" points="0 0 32 0 32 32 0 32"></polygon>
                        <g id="a-link">
                            <g id="a-Clipped">
                                <mask id="mask-2" fill="white">
                                    <use xlink:href="#path-1"></use>
                                </mask>
                                <g id="a"></g>
                                <circle id="a" stroke="#7F878D" stroke-width="4" mask="url(#mask-2)" cx="16" cy="16" r="16"></circle>
                            </g>
                        </g>
                        <path d="M15.9883636,9.91272727 C17.021631,9.90990828 17.8620996,10.7441945 17.8669091,11.7774545 C17.8616999,12.8104301 17.0213485,13.6442747 15.9883636,13.6414545 C14.9534545,13.6414545 14.1098182,12.8050909 14.1098182,11.7774545 C14.1098182,10.7490909 14.9534545,9.91272727 15.9883636,9.91272727 Z M15.9883636,16.28 C18.4901818,16.28 20.5250909,14.2603636 20.5250909,11.7774545 C20.5250909,9.29309091 18.4909091,7.27272727 15.9883636,7.27272727 C13.4865455,7.27272727 11.4516364,9.29309091 11.4516364,11.7774545 C11.4516364,14.2603636 13.4865455,16.28 15.9883636,16.28 Z M17.8356364,19.9563636 C18.7681625,19.7455127 19.6586236,19.3794451 20.4698182,18.8734545 C20.7676045,18.6884806 20.979145,18.3921974 21.057403,18.0504844 C21.135661,17.7087714 21.0741494,17.3499547 20.8865455,17.0538182 C20.4931647,16.4357477 19.6749001,16.250664 19.0538182,16.6392727 C17.1831583,17.7992137 14.8168417,17.7992137 12.9461818,16.6392727 C12.3251718,16.250241 11.5065882,16.4353968 11.1134545,17.0538182 C10.9257855,17.3498661 10.8641608,17.7086184 10.9422801,18.0503221 C11.0203995,18.3920259 11.2317886,18.6883625 11.5294545,18.8734545 C12.340938,19.3795533 13.2316148,19.7458543 14.1643636,19.9570909 L11.6276364,22.4749091 C11.3787471,22.7216708 11.2388028,23.0576703 11.2389394,23.4081516 C11.239076,23.7586329 11.3792821,24.0945233 11.6283636,24.3410909 C11.8783112,24.5887297 12.2161503,24.727317 12.568,24.7265455 C12.9201014,24.7275094 13.2582373,24.5889077 13.5083636,24.3410909 L15.9992727,21.8661818 L18.4930909,24.3410909 C19.0116364,24.856 19.8530909,24.856 20.3716364,24.3410909 C20.6209839,24.09462 20.7613103,23.7586025 20.7613103,23.408 C20.7613103,23.0573975 20.6209839,22.72138 20.3716364,22.4749091 L17.8356364,19.9563636 Z" id="Shape" fill="#7F878D" fill-rule="nonzero"></path>
                    </g>
                </g>
            </g>
        </g>
    </g>
</svg>