<?xml version="1.0" encoding="UTF-8"?>
<svg width="35px" height="12px" viewBox="0 0 35 12" version="1.1" xmlns="http://www.w3.org/2000/svg" xmlns:xlink="http://www.w3.org/1999/xlink">
    <!-- Generator: Sketch 52 (66869) - http://www.bohemiancoding.com/sketch -->
    <title>visa</title>
    <desc>Created with Sketch.</desc>
    <g id="Cart" stroke="none" stroke-width="1" fill="none" fill-rule="evenodd">
        <g id="Bork-Checkout-Payment-Desktop" transform="translate(-512.000000, -489.000000)">
            <g id="Payment" transform="translate(155.000000, 368.000000)">
                <g id="Group-3" transform="translate(340.000000, 81.000000)">
                    <g id="visa" transform="translate(0.000000, 25.000000)">
                        <g id="logo" transform="translate(17.370610, 15.782071)">
                            <g id="registered" transform="translate(33.392946, 9.306933)" fill="#FFFFFF">
                                <path d="M0.0877757441,0.618888333 C0.0877757441,0.311350953 0.337200607,0.0621067517 0.644688307,0.0621067517 C0.952721198,0.0621067517 1.20160087,0.311350953 1.20160087,0.618888333 C1.20160087,0.926153315 0.952721198,1.17566991 0.644688307,1.17566991 C0.337200607,1.17566991 0.0877757441,0.926153315 0.0877757441,0.618888333 L0.0877757441,0.618888333 Z M0.644688307,1.04165008 C0.879120419,1.04165008 1.06830168,0.852333448 1.06830168,0.618888333 C1.06830168,0.384626024 0.879120419,0.195854186 0.644688307,0.195854186 C0.411346577,0.195854186 0.22189272,0.384626024 0.22189272,0.618888333 C0.22189272,0.852333448 0.411346577,1.04165008 0.644688307,1.04165008 L0.644688307,1.04165008 Z M0.56972455,0.862956971 L0.45577964,0.862956971 L0.45577964,0.374002501 L0.662407013,0.374002501 C0.705477099,0.374002501 0.749092375,0.374547297 0.787255742,0.398518324 C0.826782087,0.426302923 0.849134916,0.472338191 0.849134916,0.520825041 C0.849134916,0.576666638 0.817241245,0.628422264 0.764902913,0.647490127 L0.85431423,0.862956971 L0.727557333,0.862956971 L0.653411362,0.669281969 L0.56972455,0.669281969 L0.56972455,0.862956971 L0.56972455,0.862956971 Z M0.56972455,0.585655773 L0.632421511,0.585655773 C0.656137317,0.585655773 0.681488697,0.587834957 0.702205953,0.576666638 C0.721015041,0.564408726 0.730828478,0.541527291 0.730828478,0.519735449 C0.730828478,0.501757178 0.719379468,0.479965336 0.703296335,0.470431405 C0.68312427,0.458718289 0.651503194,0.461169871 0.630240747,0.461169871 L0.56972455,0.461169871 L0.56972455,0.585655773 L0.56972455,0.585655773 Z"></path>
                            </g>
                            <path d="M30.7316162,10.5174452 L30.4161407,8.99175433 L26.9933638,8.99175433 L26.4322744,10.5174452 L23.6263882,10.5174452 L27.6410112,1.00926964 C27.6410112,1.00926964 27.8848675,0.244023239 28.884459,0.244023239 L31.0484098,0.244023239 L33.203573,10.5174452 L30.7316162,10.5174452 Z M27.7693104,6.88372531 L29.9798355,6.88372531 L29.1836774,3.03828576 L27.7693104,6.88372531 Z" id="a" fill="#FFFFFF"></path>
                            <path d="M23.8364122,2.71437656 L24.2208705,0.508127102 C24.2208705,0.508127102 23.0349815,0.0602418729 21.7994425,0.0602418729 C20.4632853,0.0602418729 17.290516,0.640397301 17.290516,3.46128848 C17.290516,6.1158597 21.0147083,6.14903639 21.0147083,7.54202056 C21.0147083,8.93587781 17.6745349,8.68705268 16.5716889,7.80787057 L16.1718523,10.1140866 C16.1718523,10.1140866 17.373559,10.6946786 19.2110498,10.6946786 C21.0476618,10.6946786 23.8201551,9.74914309 23.8201551,7.17751358 C23.8201551,4.50635401 20.0625699,4.25709235 20.0625699,3.09590842 C20.0625699,1.93428796 22.6847949,2.08358304 23.8364122,2.71437656" id="s" fill="#FFFFFF"></path>
                            <polyline id="i" fill="#FFFFFF" points="14.5127501 10.5174452 11.8206636 10.5174452 13.5030529 0.244023239 16.1960183 0.244023239 14.5127501 10.5174452"></polyline>
                            <path d="M2.38078525,0.244023239 L4.50233578,0.244023239 C5.67021013,0.244023239 5.77917659,1.16904156 5.77917659,1.16904156 L6.68517994,5.78889476 C6.68517994,5.78889476 6.07619805,3.91484867 4.20575369,2.41054799 C2.24963006,0.837711261 0.210024056,0.417764292 0.209584675,0.417764292 L0.259234713,0.244023239 L2.38078525,0.244023239 L4.50233578,0.244023239 C5.67021013,0.244023239 5.77917659,1.16904156 5.77917659,1.16904156 L6.68517994,5.78889476 L6.68517994,5.78845822 L6.9892315,7.31022031 L9.55565517,0.244023239 L12.453372,0.244023239 L8.1698479,10.5174452 L5.36484043,10.5174452 L3.02645543,1.59204428 C1.50751577,0.685796973 0.210024056,0.417764292 0.209584675,0.417764292 L0.259234713,0.244023239 L2.38078525,0.244023239 Z" id="v" fill="#FFFFFF"></path>
                            <path d="M6.68517994,5.78889476 L5.77917659,1.16904156 C5.77917659,1.16904156 5.67021013,0.244023239 4.50233578,0.244023239 L0.259234713,0.244023239 L0.209584675,0.417764292 C0.210024056,0.417764292 2.24963006,0.837711261 4.20575369,2.41054799 C6.07619805,3.91484867 6.68517994,5.78889476 6.68517994,5.78889476" id="shape" fill="#F9A533"></path>
                        </g>
                    </g>
                </g>
            </g>
        </g>
    </g>
</svg>