<?xml version="1.0" encoding="UTF-8"?>
<svg width="32px" height="32px" viewBox="0 0 32 32" version="1.1" xmlns="http://www.w3.org/2000/svg" xmlns:xlink="http://www.w3.org/1999/xlink">
    <!-- Generator: sketchtool 50.2 (55047) - http://www.bohemiancoding.com/sketch -->
    <title>BB79FD7A-D15B-4D77-B3C7-C143C589D8AD</title>
    <desc>Created with sketchtool.</desc>
    <defs>
        <circle id="path-1" cx="16" cy="16" r="16"></circle>
    </defs>
    <g id="Symbols" stroke="none" stroke-width="1" fill="none" fill-rule="evenodd" opacity="0.497622283">
        <g id="Footer_1440" transform="translate(-219.000000, -379.000000)">
            <g id="Footer" transform="translate(0.000000, 120.000000)">
                <g id="social" transform="translate(135.000000, 259.000000)">
                    <g id="vk" transform="translate(84.000000, 0.000000)">
                        <polygon id="Shape" points="0 0 32 0 32 32 0 32"></polygon>
                        <g id="a-link">
                            <g id="a-Clipped">
                                <mask id="mask-2" fill="white">
                                    <use xlink:href="#path-1"></use>
                                </mask>
                                <g id="a"></g>
                                <circle id="a" stroke="#7F878D" stroke-width="4" mask="url(#mask-2)" cx="16" cy="16" r="16"></circle>
                            </g>
                        </g>
                        <path d="M16.528,21.768 C16.528,21.768 16.856,21.7323636 17.024,21.5549091 C17.1781818,21.3927273 17.1730909,21.0865455 17.1730909,21.0865455 C17.1730909,21.0865455 17.152,19.656 17.8290909,19.4443636 C18.496,19.2370909 19.352,20.8283636 20.2610909,21.44 C20.9476364,21.9025455 21.4683636,21.8014545 21.4683636,21.8014545 L23.8974545,21.768 C23.8974545,21.768 25.1672727,21.6916364 24.5650909,20.7112727 C24.5156364,20.6312727 24.2138182,19.9854545 22.76,18.6603636 C21.2370909,17.2734545 21.4414545,17.4981818 23.2749091,15.0981818 C24.392,13.6370909 24.8385455,12.7447273 24.6989091,12.3636364 C24.5658182,11.9985455 23.7447273,12.0952727 23.7447273,12.0952727 L21.0101818,12.112 C21.0101818,12.112 20.808,12.0850909 20.6574545,12.1730909 C20.5112727,12.2596364 20.416,12.4610909 20.416,12.4610909 C20.416,12.4610909 19.984,13.592 19.4065455,14.5534545 C18.1890909,16.5825455 17.7025455,16.6894545 17.5032727,16.5636364 C17.04,16.2698182 17.1556364,15.384 17.1556364,14.7541818 C17.1556364,12.7876364 17.4596364,11.9687273 16.5643636,11.7556364 C16.2676364,11.6850909 16.0487273,11.6392727 15.2887273,11.6312727 C14.3127273,11.6218182 13.4872727,11.6349091 13.0196364,11.8589091 C12.7083636,12.008 12.4683636,12.3418182 12.6152727,12.3607273 C12.7956364,12.3847273 13.2043636,12.4690909 13.4218182,12.7592727 C13.7018182,13.1330909 13.6923636,13.9738182 13.6923636,13.9738182 C13.6923636,13.9738182 13.8530909,16.288 13.3156364,16.5752727 C12.9476364,16.7723636 12.4429091,16.3701818 11.3570909,14.5294545 C10.8014545,13.5861818 10.3810909,12.544 10.3810909,12.544 C10.3810909,12.544 10.3010909,12.3498182 10.1556364,12.2450909 C9.98036364,12.1185455 9.736,12.0792727 9.736,12.0792727 L7.13818182,12.0952727 C7.13818182,12.0952727 6.74763636,12.1061818 6.60436364,12.2727273 C6.47781818,12.4203636 6.59490909,12.7265455 6.59490909,12.7265455 C6.59490909,12.7265455 8.62836364,17.3978182 10.9316364,19.752 C13.0436364,21.9098182 15.4407273,21.768 15.4407273,21.768 L16.528,21.768 Z" id="Shape" fill="#7F878D" fill-rule="nonzero"></path>
                    </g>
                </g>
            </g>
        </g>
    </g>
</svg>